<svg width="135" height="161" viewBox="0 0 135 161" fill="none" xmlns="http://www.w3.org/2000/svg">
<path d="M88.1655 57.2593C92.2061 61.4441 92.5648 65.8595 90.8511 70.8957C84.7598 88.7975 68.5085 101.752 50.6372 102.725C30.6934 103.811 13.589 94.21 5.55108 77.4162C-3.06889 59.4065 -0.334146 39.2636 13.0777 24.9679C21.9074 15.5562 33.0868 10.7104 45.9673 10.3788C57.2823 10.0875 68.6114 10.2396 79.9329 10.3442C87.3517 10.4128 92.1318 14.7412 92.3148 21.2195C92.4916 27.4784 87.6754 32.1268 80.0853 32.3042C69.4346 32.553 58.7741 32.3755 48.1178 32.3888C34.7013 32.4055 24.6628 40.4782 22.5686 52.9243C20.6066 64.5851 28.1168 76.1208 40.3173 80.1862C50.7192 83.6523 63.36 78.1106 68.5313 67.7771C69.2744 66.2922 69.8774 64.7307 70.4573 63.1719C73.5623 54.8259 80.0771 52.5119 88.1655 57.2593Z" fill="#F15A2B"/>
<path d="M72.7496 106.487C76.4908 102.171 80.6652 100.367 85.8929 102.464C90.3514 104.253 92.9959 108.732 92.9165 114.112C92.6055 135.209 76.9749 154.957 56.7752 159.774C30.8168 165.963 4.22603 147.305 0.801634 120.437C0.343901 116.846 -0.649385 113.272 0.626799 109.573C2.3063 104.705 6.55032 101.43 11.4908 101.55C16.2723 101.667 20.4227 105.341 21.549 110.403C22.4474 114.442 22.2746 118.614 23.9315 122.595C28.6046 133.823 38.8285 140.534 49.671 139.057C60.4317 137.591 69.7246 127.235 70.7324 115.492C70.9881 112.513 70.828 109.476 72.7496 106.487Z" fill="#F15A2B"/>
<path d="M107.958 3.43473C115.626 7.13599 122.949 10.6882 130.27 14.2444C132.059 15.1137 134.04 15.8281 134.282 18.225C134.553 20.9106 132.516 21.9919 130.671 23.0917C121.684 28.4505 112.681 33.784 103.65 39.0684C102.135 39.9547 100.424 41.392 98.6735 39.7703C96.8797 38.1083 98.3387 36.3501 99.113 34.7907C103.977 24.9946 103.937 15.3186 98.6636 5.67639C97.8365 4.1641 96.2227 2.45142 98.0302 0.74628C99.6716 -0.802029 101.456 0.420505 103.101 1.17594C104.61 1.86864 106.109 2.58258 107.958 3.43473Z" fill="#F89820"/>
</svg>
