<svg width="13" height="14" viewBox="0 0 13 14" fill="none" xmlns="http://www.w3.org/2000/svg">
<path d="M2.08096 10.1759C1.71327 7.48916 1.3665 4.92056 1.02106 2.35188C0.936614 1.72394 0.780748 1.06762 1.34415 0.628371C1.97541 0.13621 2.59388 0.529241 3.18427 0.86623C6.06092 2.50823 8.93381 4.15836 11.7991 5.82399C12.2797 6.10333 12.9327 6.35125 12.8206 7.08524C12.7059 7.83751 12.0149 7.709 11.4902 7.73814C8.19405 7.92119 5.76054 9.43619 4.22356 12.3869C3.9825 12.8497 3.82441 13.5603 3.08762 13.3276C2.4186 13.1162 2.4242 12.435 2.33548 11.8644C2.25413 11.3412 2.1798 10.8175 2.08096 10.1759Z" fill="#F89820"/>
</svg>
