<svg width="21" height="23" viewBox="0 0 21 23" fill="none" xmlns="http://www.w3.org/2000/svg">
<path d="M2.44222 16.8464C1.82941 12.3685 1.25145 8.08749 0.675725 3.80635C0.534982 2.75979 0.275205 1.66592 1.2142 0.933842C2.2663 0.113572 3.2971 0.768623 4.28107 1.33027C9.0755 4.06694 13.8636 6.81716 18.6392 9.5932C19.4401 10.0588 20.5284 10.472 20.3417 11.6953C20.1504 12.9491 18.9987 12.7349 18.1242 12.7835C12.6307 13.0885 8.57486 15.6135 6.01322 20.5314C5.61145 21.3027 5.34798 22.487 4.12 22.0991C3.00495 21.7469 3.01429 20.6115 2.86642 19.6606C2.73084 18.7886 2.60695 17.9157 2.44222 16.8464Z" fill="#F89820"/>
</svg>
