<svg id="wave" style="transform:rotate(0deg); transition: 0.3s" viewBox="0 0 1440 310" version="1.1" xmlns="http://www.w3.org/2000/svg"><defs><linearGradient id="sw-gradient-0" x1="0" x2="0" y1="1" y2="0"><stop stop-color="rgba(240, 240, 240, 1)" offset="0%"></stop><stop stop-color="rgba(241, 90, 43, 0.45098039215686275)" offset="100%"></stop></linearGradient></defs><path style="transform:translate(0, 0px); opacity:1" fill="url(#sw-gradient-0)" d="M0,279L40,279C80,279,160,279,240,237.7C320,196,400,114,480,108.5C560,103,640,176,720,191.2C800,207,880,165,960,144.7C1040,124,1120,124,1200,149.8C1280,176,1360,227,1440,227.3C1520,227,1600,176,1680,134.3C1760,93,1840,62,1920,87.8C2000,114,2080,196,2160,206.7C2240,217,2320,155,2400,113.7C2480,72,2560,52,2640,51.7C2720,52,2800,72,2880,98.2C2960,124,3040,155,3120,139.5C3200,124,3280,62,3360,46.5C3440,31,3520,62,3600,93C3680,124,3760,155,3840,139.5C3920,124,4000,62,4080,62C4160,62,4240,124,4320,129.2C4400,134,4480,83,4560,87.8C4640,93,4720,155,4800,170.5C4880,186,4960,155,5040,144.7C5120,134,5200,145,5280,170.5C5360,196,5440,238,5520,253.2C5600,269,5680,258,5720,253.2L5760,248L5760,310L5720,310C5680,310,5600,310,5520,310C5440,310,5360,310,5280,310C5200,310,5120,310,5040,310C4960,310,4880,310,4800,310C4720,310,4640,310,4560,310C4480,310,4400,310,4320,310C4240,310,4160,310,4080,310C4000,310,3920,310,3840,310C3760,310,3680,310,3600,310C3520,310,3440,310,3360,310C3280,310,3200,310,3120,310C3040,310,2960,310,2880,310C2800,310,2720,310,2640,310C2560,310,2480,310,2400,310C2320,310,2240,310,2160,310C2080,310,2000,310,1920,310C1840,310,1760,310,1680,310C1600,310,1520,310,1440,310C1360,310,1280,310,1200,310C1120,310,1040,310,960,310C880,310,800,310,720,310C640,310,560,310,480,310C400,310,320,310,240,310C160,310,80,310,40,310L0,310Z"></path><defs><linearGradient id="sw-gradient-1" x1="0" x2="0" y1="1" y2="0"><stop stop-color="rgba(240, 240, 240, 1)" offset="0%"></stop><stop stop-color="rgba(241, 90, 43, 0.45098039215686275)" offset="100%"></stop></linearGradient></defs><path style="transform:translate(0, 50px); opacity:0.9" fill="url(#sw-gradient-1)" d="M0,217L40,206.7C80,196,160,176,240,186C320,196,400,238,480,217C560,196,640,114,720,98.2C800,83,880,134,960,139.5C1040,145,1120,103,1200,118.8C1280,134,1360,207,1440,232.5C1520,258,1600,238,1680,201.5C1760,165,1840,114,1920,93C2000,72,2080,83,2160,108.5C2240,134,2320,176,2400,180.8C2480,186,2560,155,2640,118.8C2720,83,2800,41,2880,67.2C2960,93,3040,186,3120,222.2C3200,258,3280,238,3360,217C3440,196,3520,176,3600,170.5C3680,165,3760,176,3840,175.7C3920,176,4000,165,4080,134.3C4160,103,4240,52,4320,56.8C4400,62,4480,124,4560,155C4640,186,4720,186,4800,201.5C4880,217,4960,248,5040,242.8C5120,238,5200,196,5280,196.3C5360,196,5440,238,5520,258.3C5600,279,5680,279,5720,279L5760,279L5760,310L5720,310C5680,310,5600,310,5520,310C5440,310,5360,310,5280,310C5200,310,5120,310,5040,310C4960,310,4880,310,4800,310C4720,310,4640,310,4560,310C4480,310,4400,310,4320,310C4240,310,4160,310,4080,310C4000,310,3920,310,3840,310C3760,310,3680,310,3600,310C3520,310,3440,310,3360,310C3280,310,3200,310,3120,310C3040,310,2960,310,2880,310C2800,310,2720,310,2640,310C2560,310,2480,310,2400,310C2320,310,2240,310,2160,310C2080,310,2000,310,1920,310C1840,310,1760,310,1680,310C1600,310,1520,310,1440,310C1360,310,1280,310,1200,310C1120,310,1040,310,960,310C880,310,800,310,720,310C640,310,560,310,480,310C400,310,320,310,240,310C160,310,80,310,40,310L0,310Z"></path><defs><linearGradient id="sw-gradient-2" x1="0" x2="0" y1="1" y2="0"><stop stop-color="rgba(240, 240, 240, 1)" offset="0%"></stop><stop stop-color="rgba(241, 90, 43, 0.45098039215686275)" offset="100%"></stop></linearGradient></defs><path style="transform:translate(0, 100px); opacity:0.8" fill="url(#sw-gradient-2)" d="M0,279L40,268.7C80,258,160,238,240,222.2C320,207,400,196,480,206.7C560,217,640,248,720,258.3C800,269,880,258,960,258.3C1040,258,1120,269,1200,258.3C1280,248,1360,217,1440,170.5C1520,124,1600,62,1680,36.2C1760,10,1840,21,1920,67.2C2000,114,2080,196,2160,232.5C2240,269,2320,258,2400,253.2C2480,248,2560,248,2640,206.7C2720,165,2800,83,2880,87.8C2960,93,3040,186,3120,232.5C3200,279,3280,279,3360,268.7C3440,258,3520,238,3600,222.2C3680,207,3760,196,3840,165.3C3920,134,4000,83,4080,67.2C4160,52,4240,72,4320,93C4400,114,4480,134,4560,165.3C4640,196,4720,238,4800,232.5C4880,227,4960,176,5040,149.8C5120,124,5200,124,5280,144.7C5360,165,5440,207,5520,232.5C5600,258,5680,269,5720,273.8L5760,279L5760,310L5720,310C5680,310,5600,310,5520,310C5440,310,5360,310,5280,310C5200,310,5120,310,5040,310C4960,310,4880,310,4800,310C4720,310,4640,310,4560,310C4480,310,4400,310,4320,310C4240,310,4160,310,4080,310C4000,310,3920,310,3840,310C3760,310,3680,310,3600,310C3520,310,3440,310,3360,310C3280,310,3200,310,3120,310C3040,310,2960,310,2880,310C2800,310,2720,310,2640,310C2560,310,2480,310,2400,310C2320,310,2240,310,2160,310C2080,310,2000,310,1920,310C1840,310,1760,310,1680,310C1600,310,1520,310,1440,310C1360,310,1280,310,1200,310C1120,310,1040,310,960,310C880,310,800,310,720,310C640,310,560,310,480,310C400,310,320,310,240,310C160,310,80,310,40,310L0,310Z"></path></svg>  